<?xml version="1.0" encoding="utf-8"?>
<!-- Generator: Adobe Illustrator 19.2.0, SVG Export Plug-In . SVG Version: 6.00 Build 0)  -->
<svg version="1.1" id="画像パーツ" xmlns="http://www.w3.org/2000/svg" xmlns:xlink="http://www.w3.org/1999/xlink" x="0px"
	 y="0px" viewBox="0 0 82 32" style="enable-background:new 0 0 82 32;" xml:space="preserve">
<style type="text/css">
	.st0{fill:#333333;}
	.st1{fill:none;stroke:#666666;stroke-miterlimit:10;}
	.st2{fill:#666666;}
</style>
<title>btn_close</title>
<path class="st0" d="M32.8,13.9c-0.1-0.4-0.3-0.8-0.6-1.1c-0.5-0.6-1.3-0.9-2.1-0.9c-1.9,0-3.2,1.5-3.2,3.9s1.2,3.9,3.2,3.9
	c0.9,0,1.7-0.3,2.2-1c0.3-0.4,0.4-0.8,0.5-1.2l1,0.2c-0.1,0.5-0.3,1-0.7,1.4c-0.8,0.9-1.9,1.5-3.1,1.4c-1,0-2.1-0.3-2.8-1.1
	c-0.9-1-1.4-2.3-1.3-3.6c-0.1-1.4,0.4-2.7,1.4-3.7c0.7-0.7,1.7-1,2.8-1c1.6-0.1,3.1,0.9,3.6,2.5L32.8,13.9z"/>
<path class="st0" d="M37.9,20.4c-0.6,0-0.9,0-1.3,0c0.1-0.5,0.1-1,0.1-1.4v-6.3c0-0.5,0-1-0.1-1.4h1.1c-0.1,0.5-0.1,0.9-0.1,1.4v6.9
	h3.8c0.5,0,0.9,0,1.4-0.1v1c-0.5-0.1-0.9-0.1-1.4-0.1H37.9z"/>
<path class="st0" d="M53,15.9c0,2.9-1.6,4.7-4.2,4.7s-4.1-1.9-4.1-4.7s1.6-4.7,4.2-4.7S53,13,53,15.9z M50.9,18.9
	c0.7-0.8,1.1-1.9,1.1-3.1c0.1-1.1-0.3-2.2-1.1-3.1c-0.6-0.5-1.3-0.8-2.1-0.8c-1.9,0-3.2,1.5-3.2,3.9s1.3,3.9,3.2,3.9
	C49.6,19.8,50.4,19.5,50.9,18.9L50.9,18.9z"/>
<path class="st0" d="M61,13.7c0-0.4-0.2-0.7-0.4-1c-0.5-0.5-1.1-0.7-1.8-0.7c-1.2,0-2.1,0.7-2.1,1.6c0,0.6,0.4,1.2,1,1.4
	c0.6,0.2,1.1,0.3,1.7,0.4c1.9,0.4,2.7,1.1,2.7,2.5c0,1.7-1.2,2.6-3.2,2.6c-1.1,0.1-2.2-0.3-2.9-1.1c-0.3-0.5-0.5-1-0.6-1.6l1-0.1
	c0,0.4,0.1,0.8,0.4,1.2c0.5,0.6,1.2,0.9,2,0.8c1.4,0,2.3-0.7,2.3-1.8c0-0.5-0.2-1-0.7-1.3c-0.6-0.3-1.3-0.5-2-0.6
	c-0.6-0.1-1.1-0.3-1.6-0.5c-0.7-0.4-1.2-1.1-1.1-1.9c0-1.5,1.2-2.5,3.1-2.5c1-0.1,2,0.3,2.7,1.1c0.3,0.4,0.5,0.8,0.5,1.3L61,13.7z"
	/>
<path class="st0" d="M71.1,20.5c-0.4-0.1-0.9-0.1-1.3-0.1h-3.5c-0.6,0-0.9,0-1.3,0c0.1-0.5,0.1-1,0.1-1.4v-6.4c0-0.5,0-0.9-0.1-1.4
	c0.4,0,0.7,0,1.3,0h3.4c0.4,0,0.9,0,1.3-0.1v1c-0.4-0.1-0.9-0.1-1.3-0.1H66v3.1h3.2c0.4,0,0.9,0,1.3-0.1v1C70,16,69.6,16,69.1,16H66
	v3.5h3.8c0.4,0,0.9,0,1.3-0.1L71.1,20.5L71.1,20.5z"/>
<polyline class="st1" points="11.3,12.3 14.7,16.7 19.1,20.1 "/>
<polyline class="st1" points="11.3,20.5 14.8,16.2 18.6,12.2 "/>
<circle class="st2" cx="15" cy="16.4" r="1.2"/>
</svg>
